<svg id="enzSJlAeP7x1" xmlns="http://www.w3.org/2000/svg" xmlns:xlink="http://www.w3.org/1999/xlink" viewBox="0 0 300 243" shape-rendering="geometricPrecision" text-rendering="geometricPrecision" project-id="1f4281800a70458888fffffb1bf862df" export-id="884479e67add43e7a4033ecf6cec572a" cached="false"><defs><linearGradient id="enzSJlAeP7x3-fill" x1="1.8" y1="24.96" x2="39.72" y2="24.96" spreadMethod="pad" gradientUnits="userSpaceOnUse" gradientTransform="translate(0 0)"><stop id="enzSJlAeP7x3-fill-0" offset="0%" stop-color="#568259"/><stop id="enzSJlAeP7x3-fill-1" offset="50%" stop-color="#464e47"/><stop id="enzSJlAeP7x3-fill-2" offset="100%" stop-color="#568259"/></linearGradient><linearGradient id="enzSJlAeP7x5-fill" x1="2.28516" y1="3.06641" x2="195.12416" y2="3.06641" spreadMethod="pad" gradientUnits="userSpaceOnUse" gradientTransform="translate(0 0)"><stop id="enzSJlAeP7x5-fill-0" offset="0%" stop-color="#568259"/><stop id="enzSJlAeP7x5-fill-1" offset="50%" stop-color="#464e47"/><stop id="enzSJlAeP7x5-fill-2" offset="100%" stop-color="#568259"/></linearGradient></defs><g transform="matrix(3.16456 0 0 3.16456 74.3038 -78.9873)" clip-rule="evenodd"><path d="M34.14,33.84c1.2-2.1,2.1-3.9,2.1-5.7s-1.56-1.92-2.82-1.92c-6.06,0-13.26,4.44-19.86,12.12-6,7.02-10.32,17.22-10.32,25.5c0,8.58,3.3,11.58,9.3,11.58c11.52,0,25.92-15.96,25.92-21.12c0-.9-.66-1.14-2.04-1.14s-9.36,1.92-13.86,3.66c-.84.3.3-1.44,1.44-1.92c7.02-3.06,15.72-4.62,15.72-.9c0,7.68-15.72,23.28-27.18,23.28-7.98,0-10.74-6.54-10.74-13.44c0-7.8,2.52-16.2,10.44-26.34c5.94-7.56,14.28-12.54,20.64-12.54c2.52,0,4.44.9,4.44,2.82c0,1.98-1.14,5.28-1.98,6.24-.84.84-1.68.6-1.2-.18Z" clip-rule="evenodd" fill="url(#enzSJlAeP7x3-fill)" stroke-linejoin="round" stroke-miterlimit="2"/></g><g transform="matrix(1.5557 0 0 1.5557 -3.55502 179.23)" clip-rule="evenodd"><path d="M15.957,40.371c-7.734,0-13.672-5.293-13.672-14.101c0-8.887,5.977-14.258,13.809-14.258c5.078,0,9.433,2.226,11.816,6.445l-3.437,1.836c-1.739-3.242-4.844-4.746-8.379-4.746-5.586,0-9.903,3.789-9.903,10.644c0,6.758,4.219,10.684,10.039,10.684c4.688,0,8.36-2.637,9.004-7.871h-9.023v-3.242h12.793v14.238h-3.164v-4.961c-1.817,3.379-5.235,5.332-9.883,5.332v0ZM60.416,40l-2.305-6.445h-12.344L43.462,40h-4.043L49.595,12.383h4.688L64.458,40h-4.042v0ZM46.978,30.156h9.922L51.939,16.23L46.978,30.156ZM84.854,40.371c-5.761,0-9.98-2.754-10.917-7.441l3.964-.938c.625,3.223,3.418,5.078,7.09,5.078c2.949,0,5.781-1.211,5.723-4.531-.039-3.281-3.594-4.18-7.363-5.215-4.278-1.172-8.555-2.519-8.555-7.597c0-5.137,4.238-7.715,9.258-7.715c4.863,0,9.238,2.05,10.273,6.797l-3.769.957c-.684-3.067-3.243-4.434-6.329-4.434-2.773,0-5.527,1.211-5.527,4.356c0,2.851,3.086,3.691,6.582,4.628c4.395,1.192,9.434,2.559,9.434,8.106c0,5.586-4.688,7.949-9.864,7.949v0Zm37.428-27.988v3.496h-6.992v24.121h-3.848v-24.121h-7.012v-3.496h17.852ZM144.533,9.57l4.942-6.504l1.953,1.426-4.375,5.078h-2.52ZM145.9,40.371c-7.832,0-13.808-5.391-13.808-14.199c0-8.789,5.976-14.16,13.808-14.16c7.793,0,13.789,5.371,13.789,14.16c0,8.808-5.996,14.199-13.789,14.199v0Zm0-3.652c5.528,0,9.903-3.828,9.903-10.547c0-6.66-4.375-10.488-9.903-10.488-5.546,0-9.941,3.828-9.941,10.488c0,6.719,4.395,10.547,9.941,10.547Zm45.357-24.336h3.868v27.617h-4.2L176.492,18.086v21.914h-3.848v-27.617h4.16l14.453,21.816v-21.816Z" clip-rule="evenodd" fill="url(#enzSJlAeP7x5-fill)" stroke-linejoin="round" stroke-miterlimit="2"/></g></svg>
